<svg xmlns="http://www.w3.org/2000/svg" viewBox="0 0 200 200">
  <path d="M 65 70 L 70 145 Q 100 152 130 145 L 135 70 Z" fill="url(#bananaGradient)" stroke="#F9A825" stroke-width="2.5"/>
  <defs>
    <linearGradient id="bananaGradient" x1="0%" y1="0%" x2="0%" y2="100%">
      <stop offset="0%" style="stop-color:#FFF9C4;stop-opacity:0.95" />
      <stop offset="100%" style="stop-color:#FFE082;stop-opacity:1" />
    </linearGradient>
  </defs>
  <ellipse cx="100" cy="70" rx="35" ry="10" fill="#FFF9C4" stroke="#F9A825" stroke-width="2.5"/>
  <ellipse cx="100" cy="65" rx="32" ry="12" fill="#FFFDE7"/>
  <ellipse cx="90" cy="60" rx="15" ry="10" fill="#FFF"/>
  <ellipse cx="110" cy="62" rx="18" ry="11" fill="#FFF"/>
  <ellipse cx="100" cy="58" rx="12" ry="8" fill="#FFFDE7"/>
  <g transform="translate(100, 50)">
    <circle cx="0" cy="0" r="8" fill="#FFE082" stroke="#F9A825" stroke-width="1.5"/>
    <circle cx="0" cy="0" r="4" fill="#FFF9C4"/>
    <path d="M -3 0 L 3 0" stroke="#F9A825" stroke-width="1"/>
    <path d="M 0 -3 L 0 3" stroke="#F9A825" stroke-width="1"/>
  </g>
  <circle cx="80" cy="90" r="4" fill="#FFF" opacity="0.5"/>
  <circle cx="95" cy="110" r="3" fill="#FFF" opacity="0.5"/>
  <circle cx="115" cy="100" r="4.5" fill="#FFF" opacity="0.5"/>
  <circle cx="108" cy="125" r="3" fill="#FFF" opacity="0.5"/>
  <rect x="110" y="35" width="7" height="90" fill="#FFD54F" opacity="0.9" rx="3.5"/>
  <path d="M 72 80 Q 74 110 75 140" stroke="#FFF" stroke-width="4" opacity="0.4" fill="none"/>
</svg>
