<svg xmlns="http://www.w3.org/2000/svg" viewBox="0 0 120 120" fill="none">
  <!-- Warm Ghibli-style Caesar Salad -->
  <defs>
    <linearGradient id="caesarBowl" x1="0%" y1="0%" x2="100%" y2="100%">
      <stop offset="0%" style="stop-color:#FAFAFA"/>
      <stop offset="100%" style="stop-color:#E0E0E0"/>
    </linearGradient>
  </defs>
  <!-- Shadow -->
  <ellipse cx="60" cy="100" rx="45" ry="10" fill="#00000015"/>
  <!-- Bowl -->
  <ellipse cx="60" cy="78" rx="50" ry="22" fill="url(#caesarBowl)"/>
  <ellipse cx="60" cy="76" rx="45" ry="19" fill="#FFFFFF"/>
  <!-- Romaine lettuce leaves -->
  <path d="M25 65 Q35 50 50 55 Q45 70 30 75 Z" fill="#8BC34A"/>
  <path d="M28 67 Q36 55 48 58" stroke="#7CB342" stroke-width="1.5" fill="none"/>
  <path d="M40 55 Q55 42 70 50 Q65 68 48 72 Z" fill="#9CCC65"/>
  <path d="M43 58 Q55 48 67 53" stroke="#8BC34A" stroke-width="1.5" fill="none"/>
  <path d="M60 48 Q78 38 92 50 Q85 68 68 70 Z" fill="#8BC34A"/>
  <path d="M63 52 Q77 43 88 52" stroke="#7CB342" stroke-width="1.5" fill="none"/>
  <path d="M35 72 Q48 62 62 68 Q58 82 42 85 Z" fill="#AED581"/>
  <path d="M70 65 Q85 55 98 65 Q92 80 78 82 Z" fill="#9CCC65"/>
  <path d="M50 75 Q62 68 75 74 Q72 85 58 88 Z" fill="#8BC34A"/>
  <!-- Caesar dressing drizzle -->
  <path d="M35 62 Q50 55 65 62" stroke="#FFF8E1" stroke-width="3" fill="none" opacity="0.8"/>
  <path d="M55 70 Q70 63 85 70" stroke="#FFF8E1" stroke-width="2.5" fill="none" opacity="0.8"/>
  <!-- Croutons -->
  <rect x="40" y="58" width="8" height="8" rx="1" fill="#E8B86D" transform="rotate(15 44 62)"/>
  <rect x="65" y="55" width="9" height="9" rx="1" fill="#D4A056" transform="rotate(-10 70 60)"/>
  <rect x="52" y="72" width="7" height="7" rx="1" fill="#E8B86D" transform="rotate(25 56 76)"/>
  <rect x="78" y="68" width="8" height="8" rx="1" fill="#D4A056" transform="rotate(-20 82 72)"/>
  <rect x="32" y="70" width="6" height="6" rx="1" fill="#E8B86D" transform="rotate(5 35 73)"/>
  <!-- Parmesan shavings -->
  <ellipse cx="48" cy="52" rx="5" ry="2" fill="#FFF8E1" transform="rotate(-20 48 52)"/>
  <ellipse cx="72" cy="48" rx="4" ry="1.5" fill="#FFFDE7" transform="rotate(15 72 48)"/>
  <ellipse cx="58" cy="60" rx="4" ry="1.5" fill="#FFF8E1" transform="rotate(-10 58 60)"/>
  <ellipse cx="82" cy="62" rx="5" ry="2" fill="#FFFDE7" transform="rotate(25 82 62)"/>
  <!-- Black pepper -->
  <circle cx="45" cy="56" r="0.8" fill="#424242"/>
  <circle cx="62" cy="52" r="0.8" fill="#424242"/>
  <circle cx="75" cy="58" r="0.8" fill="#424242"/>
  <circle cx="55" cy="68" r="0.8" fill="#424242"/>
</svg>
