<svg xmlns="http://www.w3.org/2000/svg" viewBox="0 0 200 200">
  <path d="M 65 70 L 70 145 Q 100 152 130 145 L 135 70 Z" fill="url(#strawberryGradient)" stroke="#C62828" stroke-width="2.5"/>
  <defs>
    <linearGradient id="strawberryGradient" x1="0%" y1="0%" x2="0%" y2="100%">
      <stop offset="0%" style="stop-color:#FFB3BA;stop-opacity:0.95" />
      <stop offset="100%" style="stop-color:#FF6B6B;stop-opacity:1" />
    </linearGradient>
  </defs>
  <ellipse cx="100" cy="70" rx="35" ry="10" fill="#FFB3BA" stroke="#C62828" stroke-width="2.5"/>
  <ellipse cx="100" cy="65" rx="32" ry="12" fill="#FFF8F8"/>
  <ellipse cx="88" cy="60" rx="16" ry="10" fill="#FFF"/>
  <ellipse cx="112" cy="62" rx="17" ry="11" fill="#FFF"/>
  <g transform="translate(100, 48)">
    <path d="M 0 -8 Q -6 -4 -6 2 Q -3 8 0 10 Q 3 8 6 2 Q 6 -4 0 -8 Z" fill="#E53935" stroke="#C62828" stroke-width="1.5"/>
    <circle cx="-3" cy="0" r="0.8" fill="#FFCDD2"/>
    <circle cx="3" cy="0" r="0.8" fill="#FFCDD2"/>
    <circle cx="0" cy="3" r="0.8" fill="#FFCDD2"/>
    <path d="M -3 -8 Q -5 -11 -2 -12 Q 0 -11 0 -8" fill="#4CAF50"/>
    <path d="M 3 -8 Q 5 -11 2 -12 Q 0 -11 0 -8" fill="#4CAF50"/>
  </g>
  <circle cx="82" cy="95" r="4" fill="#FFF" opacity="0.6"/>
  <circle cx="97" cy="115" r="3" fill="#FFF" opacity="0.6"/>
  <rect x="88" y="35" width="7" height="90" fill="#E91E63" opacity="0.9" rx="3.5"/>
  <path d="M 72 80 Q 74 110 75 140" stroke="#FFF" stroke-width="4" opacity="0.4" fill="none"/>
</svg>
