<svg xmlns="http://www.w3.org/2000/svg" viewBox="0 0 200 200">
  <ellipse cx="100" cy="140" rx="45" ry="10" fill="#689F38" opacity="0.2"/>
  <path d="M 60 80 Q 58 100 60 120 L 70 135 Q 100 140 130 135 L 140 120 Q 142 100 140 80 Z" fill="#FFF" stroke="#689F38" stroke-width="2"/>
  <ellipse cx="100" cy="80" rx="40" ry="12" fill="#F1F8E9" stroke="#689F38" stroke-width="2"/>
  <path d="M 60 85 Q 58 100 60 118 L 70 130 Q 100 135 130 130 L 140 118 Q 142 100 140 85 Z" fill="url(#greenTeaGradient)"/>
  <defs>
    <linearGradient id="greenTeaGradient" x1="0%" y1="0%" x2="0%" y2="100%">
      <stop offset="0%" style="stop-color:#C5E1A5;stop-opacity:0.8" />
      <stop offset="100%" style="stop-color:#9CCC65;stop-opacity:0.9" />
    </linearGradient>
  </defs>
  <ellipse cx="100" cy="85" rx="38" ry="10" fill="#7CB342" opacity="0.2"/>
  <path d="M 145 95 Q 165 85 170 75 Q 172 70 168 68 Q 160 65 150 75 L 145 85" fill="#8BC34A" stroke="#689F38" stroke-width="1.5"/>
  <ellipse cx="85" cy="100" rx="3" ry="5" fill="#4CAF50" opacity="0.4" transform="rotate(-20 85 100)"/>
  <ellipse cx="110" cy="105" rx="4" ry="6" fill="#4CAF50" opacity="0.4" transform="rotate(15 110 105)"/>
</svg>
