<svg xmlns="http://www.w3.org/2000/svg" viewBox="0 0 120 120" fill="none">
  <!-- Warm Ghibli-style Jägerschnitzel -->
  <defs>
    <linearGradient id="jaegerPlate" x1="0%" y1="0%" x2="100%" y2="100%">
      <stop offset="0%" style="stop-color:#FAFAFA"/>
      <stop offset="100%" style="stop-color:#E0E0E0"/>
    </linearGradient>
    <linearGradient id="jaegerCrust" x1="0%" y1="0%" x2="100%" y2="100%">
      <stop offset="0%" style="stop-color:#E8B86D"/>
      <stop offset="100%" style="stop-color:#C4863C"/>
    </linearGradient>
    <linearGradient id="mushSauce" x1="0%" y1="0%" x2="100%" y2="100%">
      <stop offset="0%" style="stop-color:#8D6E63"/>
      <stop offset="100%" style="stop-color:#6D4C41"/>
    </linearGradient>
  </defs>
  <!-- Shadow -->
  <ellipse cx="60" cy="105" rx="48" ry="10" fill="#00000015"/>
  <!-- Plate -->
  <ellipse cx="60" cy="78" rx="52" ry="24" fill="url(#jaegerPlate)"/>
  <ellipse cx="60" cy="76" rx="47" ry="21" fill="#FFFFFF"/>
  <!-- Schnitzel -->
  <path d="M18 70 Q25 55 50 52 Q78 50 98 62 Q102 75 92 84 Q68 92 38 90 Q15 87 18 70" fill="url(#jaegerCrust)"/>
  <!-- Crispy texture (visible edges) -->
  <circle cx="25" cy="75" r="3" fill="#D4A056" opacity="0.5"/>
  <circle cx="35" cy="82" r="3" fill="#D4A056" opacity="0.4"/>
  <circle cx="88" cy="78" r="3" fill="#D4A056" opacity="0.5"/>
  <circle cx="95" cy="70" r="3" fill="#D4A056" opacity="0.4"/>
  <!-- Mushroom sauce on top -->
  <ellipse cx="60" cy="68" rx="32" ry="14" fill="url(#mushSauce)"/>
  <!-- Cream swirl in sauce -->
  <path d="M40 65 Q50 60 60 65 Q70 60 80 65" stroke="#D7CCC8" stroke-width="2" fill="none" opacity="0.5"/>
  <!-- Mushroom slices -->
  <path d="M42 62 Q46 56 50 62 L49 67 L43 67 Z" fill="#EFEBE9"/>
  <ellipse cx="46" cy="62" rx="4" ry="2" fill="#D7CCC8"/>
  <path d="M58 58 Q62 52 66 58 L65 63 L59 63 Z" fill="#EFEBE9"/>
  <ellipse cx="62" cy="58" rx="4" ry="2" fill="#D7CCC8"/>
  <path d="M72 62 Q76 56 80 62 L79 67 L73 67 Z" fill="#EFEBE9"/>
  <ellipse cx="76" cy="62" rx="4" ry="2" fill="#D7CCC8"/>
  <ellipse cx="50" cy="72" rx="4" ry="2.5" fill="#D7CCC8"/>
  <ellipse cx="68" cy="70" rx="3" ry="2" fill="#EFEBE9"/>
  <!-- Parsley -->
  <ellipse cx="60" cy="55" rx="3" ry="5" fill="#2E7D32" transform="rotate(-10 60 55)"/>
  <ellipse cx="55" cy="57" rx="2.5" ry="4" fill="#388E3C" transform="rotate(20 55 57)"/>
  <!-- Steam -->
  <path d="M55 42 Q53 37 57 32" stroke="#FFFFFF" stroke-width="2" stroke-linecap="round" fill="none" opacity="0.5"/>
  <path d="M68 40 Q66 35 70 30" stroke="#FFFFFF" stroke-width="2" stroke-linecap="round" fill="none" opacity="0.4"/>
</svg>
