<svg xmlns="http://www.w3.org/2000/svg" viewBox="0 0 200 200">
  <ellipse cx="100" cy="140" rx="45" ry="10" fill="#FDD835" opacity="0.2"/>
  <path d="M 60 80 Q 58 100 60 120 L 70 135 Q 100 140 130 135 L 140 120 Q 142 100 140 80 Z" fill="#FFF" stroke="#FBC02D" stroke-width="2"/>
  <ellipse cx="100" cy="80" rx="40" ry="12" fill="#FFFDE7" stroke="#FBC02D" stroke-width="2"/>
  <path d="M 60 85 Q 58 100 60 118 L 70 130 Q 100 135 130 130 L 140 118 Q 142 100 140 85 Z" fill="url(#jasmineTeaGradient)"/>
  <defs>
    <linearGradient id="jasmineTeaGradient" x1="0%" y1="0%" x2="0%" y2="100%">
      <stop offset="0%" style="stop-color:#FFF9C4;stop-opacity:0.75" />
      <stop offset="100%" style="stop-color:#F9A825;stop-opacity:0.85" />
    </linearGradient>
  </defs>
  <ellipse cx="100" cy="85" rx="38" ry="10" fill="#F9A825" opacity="0.2"/>
  <path d="M 145 95 Q 165 85 170 75 Q 172 70 168 68 Q 160 65 150 75 L 145 85" fill="#FFD54F" stroke="#FBC02D" stroke-width="1.5"/>
  <g transform="translate(95, 100)">
    <circle cx="0" cy="0" r="3" fill="#FFF" opacity="0.8"/>
    <circle cx="-2" cy="-2" r="1.5" fill="#FBC02D" opacity="0.6"/>
    <circle cx="2" cy="-2" r="1.5" fill="#FBC02D" opacity="0.6"/>
    <circle cx="-2" cy="2" r="1.5" fill="#FBC02D" opacity="0.6"/>
    <circle cx="2" cy="2" r="1.5" fill="#FBC02D" opacity="0.6"/>
  </g>
</svg>
