<svg xmlns="http://www.w3.org/2000/svg" viewBox="0 0 200 200">
  <path d="M 65 70 L 70 145 Q 100 152 130 145 L 135 70 Z" fill="url(#caramelGradient)" stroke="#8B4513" stroke-width="2.5"/>
  <defs>
    <linearGradient id="caramelGradient" x1="0%" y1="0%" x2="0%" y2="100%">
      <stop offset="0%" style="stop-color:#F4A460;stop-opacity:0.95" />
      <stop offset="100%" style="stop-color:#D2691E;stop-opacity:1" />
    </linearGradient>
  </defs>
  <ellipse cx="100" cy="70" rx="35" ry="10" fill="#F4A460" stroke="#8B4513" stroke-width="2.5"/>
  <ellipse cx="100" cy="65" rx="32" ry="12" fill="#FFF"/>
  <ellipse cx="90" cy="60" rx="15" ry="10" fill="#FFFAF0"/>
  <ellipse cx="110" cy="62" rx="18" ry="11" fill="#FFFAF0"/>
  <path d="M 75 58 Q 85 56 95 58 Q 105 60 115 58 Q 120 56 125 58" stroke="#8B4513" stroke-width="2.5" fill="none" stroke-linecap="round"/>
  <circle cx="82" cy="95" r="4" fill="#FFF" opacity="0.5"/>
  <circle cx="98" cy="115" r="3" fill="#FFF" opacity="0.5"/>
  <rect x="110" y="35" width="7" height="90" fill="#CD853F" opacity="0.9" rx="3.5"/>
  <path d="M 72 80 Q 74 110 75 140" stroke="#FFF" stroke-width="4" opacity="0.4" fill="none"/>
</svg>
