<svg xmlns="http://www.w3.org/2000/svg" viewBox="0 0 120 120" fill="none">
  <!-- Warm Ghibli-style Nachos -->
  <defs>
    <linearGradient id="nachosPlate" x1="0%" y1="0%" x2="100%" y2="100%">
      <stop offset="0%" style="stop-color:#4A4A4A"/>
      <stop offset="100%" style="stop-color:#2A2A2A"/>
    </linearGradient>
    <linearGradient id="nacho" x1="0%" y1="0%" x2="100%" y2="100%">
      <stop offset="0%" style="stop-color:#FFD54F"/>
      <stop offset="100%" style="stop-color:#FFA726"/>
    </linearGradient>
  </defs>
  <!-- Shadow -->
  <ellipse cx="60" cy="100" rx="48" ry="10" fill="#00000015"/>
  <!-- Plate -->
  <ellipse cx="60" cy="78" rx="52" ry="22" fill="url(#nachosPlate)"/>
  <ellipse cx="60" cy="76" rx="48" ry="19" fill="#333333"/>
  <!-- Nacho chips pile -->
  <polygon points="25,70 40,45 55,70" fill="url(#nacho)"/>
  <polygon points="35,72 52,48 68,72" fill="url(#nacho)"/>
  <polygon points="50,68 65,42 82,68" fill="url(#nacho)"/>
  <polygon points="62,70 78,45 95,70" fill="url(#nacho)"/>
  <polygon points="40,78 55,55 72,78" fill="url(#nacho)"/>
  <polygon points="55,75 70,50 88,75" fill="url(#nacho)"/>
  <polygon points="28,78 42,58 58,78" fill="url(#nacho)"/>
  <polygon points="70,78 85,55 98,78" fill="url(#nacho)"/>
  <!-- Melted cheese -->
  <path d="M30 65 Q40 58 50 65 Q60 58 70 65 Q80 58 90 65" stroke="#FFC107" stroke-width="5" fill="none"/>
  <path d="M35 72 Q45 65 55 72 Q65 65 75 72 Q85 65 95 72" stroke="#FFB300" stroke-width="4" fill="none"/>
  <!-- Jalapeños -->
  <circle cx="42" cy="58" r="3" fill="none" stroke="#4CAF50" stroke-width="2"/>
  <circle cx="68" cy="55" r="2.5" fill="none" stroke="#388E3C" stroke-width="2"/>
  <circle cx="82" cy="62" r="3" fill="none" stroke="#4CAF50" stroke-width="2"/>
  <circle cx="55" cy="68" r="2.5" fill="none" stroke="#388E3C" stroke-width="2"/>
  <!-- Black beans -->
  <ellipse cx="48" cy="65" rx="3" ry="2" fill="#212121"/>
  <ellipse cx="65" cy="60" rx="3" ry="2" fill="#212121"/>
  <ellipse cx="78" cy="68" rx="3" ry="2" fill="#212121"/>
  <ellipse cx="38" cy="70" rx="2.5" ry="1.5" fill="#212121"/>
  <!-- Tomato bits -->
  <circle cx="52" cy="62" r="2" fill="#E53935"/>
  <circle cx="72" cy="58" r="2" fill="#EF5350"/>
  <circle cx="88" cy="65" r="2" fill="#E53935"/>
  <!-- Sour cream dollops -->
  <ellipse cx="45" cy="55" rx="5" ry="3" fill="#FAFAFA"/>
  <ellipse cx="75" cy="52" rx="4" ry="2.5" fill="#FFFFFF"/>
  <!-- Guacamole -->
  <ellipse cx="60" cy="50" rx="8" ry="5" fill="#8BC34A"/>
  <ellipse cx="60" cy="49" rx="6" ry="3" fill="#9CCC65"/>
  <!-- Cilantro -->
  <ellipse cx="58" cy="47" rx="2" ry="3" fill="#2E7D32" transform="rotate(-20 58 47)"/>
  <ellipse cx="62" cy="48" rx="2" ry="3" fill="#388E3C" transform="rotate(15 62 48)"/>
</svg>
