<svg xmlns="http://www.w3.org/2000/svg" viewBox="0 0 120 120" fill="none">
  <!-- Warm Ghibli-style Pizza Salami -->
  <defs>
    <linearGradient id="crustS" x1="0%" y1="0%" x2="100%" y2="100%">
      <stop offset="0%" style="stop-color:#E8B86D"/>
      <stop offset="100%" style="stop-color:#C4863C"/>
    </linearGradient>
    <linearGradient id="cheeseS" x1="0%" y1="0%" x2="100%" y2="100%">
      <stop offset="0%" style="stop-color:#FFECB3"/>
      <stop offset="100%" style="stop-color:#FFD54F"/>
    </linearGradient>
  </defs>
  <!-- Shadow -->
  <ellipse cx="60" cy="105" rx="40" ry="8" fill="#00000020"/>
  <!-- Pizza base -->
  <ellipse cx="60" cy="65" rx="45" ry="35" fill="url(#crustS)"/>
  <!-- Sauce -->
  <ellipse cx="60" cy="63" rx="38" ry="28" fill="#E53935"/>
  <!-- Cheese -->
  <ellipse cx="60" cy="61" rx="36" ry="26" fill="url(#cheeseS)"/>
  <!-- Salami slices -->
  <circle cx="40" cy="55" r="8" fill="#C62828"/>
  <circle cx="40" cy="55" r="5" fill="#B71C1C"/>
  <circle cx="38" cy="53" r="1" fill="#FFCDD2"/>
  <circle cx="42" cy="57" r="1" fill="#FFCDD2"/>

  <circle cx="65" cy="52" r="7" fill="#C62828"/>
  <circle cx="65" cy="52" r="4.5" fill="#B71C1C"/>
  <circle cx="63" cy="50" r="1" fill="#FFCDD2"/>
  <circle cx="67" cy="54" r="1" fill="#FFCDD2"/>

  <circle cx="80" cy="65" r="7" fill="#C62828"/>
  <circle cx="80" cy="65" r="4.5" fill="#B71C1C"/>
  <circle cx="78" cy="63" r="1" fill="#FFCDD2"/>

  <circle cx="55" cy="70" r="8" fill="#C62828"/>
  <circle cx="55" cy="70" r="5" fill="#B71C1C"/>
  <circle cx="53" cy="68" r="1" fill="#FFCDD2"/>
  <circle cx="57" cy="72" r="1" fill="#FFCDD2"/>

  <circle cx="35" cy="72" r="6" fill="#C62828"/>
  <circle cx="35" cy="72" r="4" fill="#B71C1C"/>
  <circle cx="34" cy="71" r="1" fill="#FFCDD2"/>

  <circle cx="72" cy="75" r="6" fill="#C62828"/>
  <circle cx="72" cy="75" r="4" fill="#B71C1C"/>
  <circle cx="71" cy="74" r="1" fill="#FFCDD2"/>

  <circle cx="50" cy="55" r="5" fill="#C62828"/>
  <circle cx="50" cy="55" r="3" fill="#B71C1C"/>
  <!-- Oregano sprinkle -->
  <circle cx="45" cy="62" r="0.8" fill="#2E7D32"/>
  <circle cx="60" cy="58" r="0.8" fill="#2E7D32"/>
  <circle cx="75" cy="70" r="0.8" fill="#2E7D32"/>
  <circle cx="42" cy="68" r="0.8" fill="#2E7D32"/>
  <!-- Steam -->
  <path d="M50 40 Q48 35 52 30" stroke="#FFFFFF" stroke-width="2" stroke-linecap="round" fill="none" opacity="0.6"/>
  <path d="M65 38 Q63 33 67 28" stroke="#FFFFFF" stroke-width="2" stroke-linecap="round" fill="none" opacity="0.5"/>
</svg>
