<svg xmlns="http://www.w3.org/2000/svg" viewBox="0 0 120 120" fill="none">
  <!-- Warm Ghibli-style Pizza Funghi -->
  <defs>
    <linearGradient id="crustF" x1="0%" y1="0%" x2="100%" y2="100%">
      <stop offset="0%" style="stop-color:#E8B86D"/>
      <stop offset="100%" style="stop-color:#C4863C"/>
    </linearGradient>
    <linearGradient id="cheeseF" x1="0%" y1="0%" x2="100%" y2="100%">
      <stop offset="0%" style="stop-color:#FFECB3"/>
      <stop offset="100%" style="stop-color:#FFD54F"/>
    </linearGradient>
  </defs>
  <!-- Shadow -->
  <ellipse cx="60" cy="105" rx="40" ry="8" fill="#00000020"/>
  <!-- Pizza base -->
  <ellipse cx="60" cy="65" rx="45" ry="35" fill="url(#crustF)"/>
  <!-- Sauce -->
  <ellipse cx="60" cy="63" rx="38" ry="28" fill="#E53935"/>
  <!-- Cheese -->
  <ellipse cx="60" cy="61" rx="36" ry="26" fill="url(#cheeseF)"/>
  <!-- Mushroom slices -->
  <path d="M35 55 Q40 48 45 55 L43 62 L37 62 Z" fill="#E0E0E0"/>
  <ellipse cx="40" cy="55" rx="6" ry="3" fill="#BDBDBD"/>
  <line x1="38" y1="55" x2="37" y2="61" stroke="#9E9E9E" stroke-width="1"/>
  <line x1="40" y1="55" x2="40" y2="61" stroke="#9E9E9E" stroke-width="1"/>
  <line x1="42" y1="55" x2="43" y2="61" stroke="#9E9E9E" stroke-width="1"/>

  <path d="M55 50 Q60 43 65 50 L63 57 L57 57 Z" fill="#E0E0E0"/>
  <ellipse cx="60" cy="50" rx="6" ry="3" fill="#BDBDBD"/>
  <line x1="58" y1="50" x2="57" y2="56" stroke="#9E9E9E" stroke-width="1"/>
  <line x1="60" y1="50" x2="60" y2="56" stroke="#9E9E9E" stroke-width="1"/>
  <line x1="62" y1="50" x2="63" y2="56" stroke="#9E9E9E" stroke-width="1"/>

  <path d="M75 55 Q80 48 85 55 L83 62 L77 62 Z" fill="#E0E0E0"/>
  <ellipse cx="80" cy="55" rx="6" ry="3" fill="#BDBDBD"/>
  <line x1="78" y1="55" x2="77" y2="61" stroke="#9E9E9E" stroke-width="1"/>
  <line x1="80" y1="55" x2="80" y2="61" stroke="#9E9E9E" stroke-width="1"/>
  <line x1="82" y1="55" x2="83" y2="61" stroke="#9E9E9E" stroke-width="1"/>

  <path d="M45 68 Q50 61 55 68 L53 75 L47 75 Z" fill="#E0E0E0"/>
  <ellipse cx="50" cy="68" rx="6" ry="3" fill="#BDBDBD"/>
  <line x1="48" y1="68" x2="47" y2="74" stroke="#9E9E9E" stroke-width="1"/>
  <line x1="50" y1="68" x2="50" y2="74" stroke="#9E9E9E" stroke-width="1"/>
  <line x1="52" y1="68" x2="53" y2="74" stroke="#9E9E9E" stroke-width="1"/>

  <path d="M68 65 Q73 58 78 65 L76 72 L70 72 Z" fill="#E0E0E0"/>
  <ellipse cx="73" cy="65" rx="6" ry="3" fill="#BDBDBD"/>
  <line x1="71" y1="65" x2="70" y2="71" stroke="#9E9E9E" stroke-width="1"/>
  <line x1="73" y1="65" x2="73" y2="71" stroke="#9E9E9E" stroke-width="1"/>
  <line x1="75" y1="65" x2="76" y2="71" stroke="#9E9E9E" stroke-width="1"/>

  <path d="M30 70 Q34 65 38 70 L37 75 L31 75 Z" fill="#E0E0E0"/>
  <ellipse cx="34" cy="70" rx="5" ry="2.5" fill="#BDBDBD"/>
  <!-- Parsley -->
  <ellipse cx="48" cy="58" rx="3" ry="5" fill="#2E7D32" transform="rotate(-20 48 58)"/>
  <ellipse cx="65" cy="72" rx="3" ry="5" fill="#388E3C" transform="rotate(15 65 72)"/>
  <ellipse cx="82" cy="68" rx="2" ry="4" fill="#2E7D32" transform="rotate(25 82 68)"/>
  <!-- Steam -->
  <path d="M50 40 Q48 35 52 30" stroke="#FFFFFF" stroke-width="2" stroke-linecap="round" fill="none" opacity="0.6"/>
  <path d="M65 38 Q63 33 67 28" stroke="#FFFFFF" stroke-width="2" stroke-linecap="round" fill="none" opacity="0.5"/>
</svg>
