<svg xmlns="http://www.w3.org/2000/svg" viewBox="0 0 120 120" fill="none">
  <!-- Warm Ghibli-style Ravioli -->
  <defs>
    <linearGradient id="ravioliBowl" x1="0%" y1="0%" x2="100%" y2="100%">
      <stop offset="0%" style="stop-color:#FAFAFA"/>
      <stop offset="100%" style="stop-color:#E0E0E0"/>
    </linearGradient>
    <linearGradient id="tomatoSauce" x1="0%" y1="0%" x2="100%" y2="100%">
      <stop offset="0%" style="stop-color:#E53935"/>
      <stop offset="100%" style="stop-color:#C62828"/>
    </linearGradient>
  </defs>
  <!-- Shadow -->
  <ellipse cx="60" cy="105" rx="42" ry="8" fill="#00000015"/>
  <!-- Bowl -->
  <ellipse cx="60" cy="82" rx="48" ry="20" fill="url(#ravioliBowl)"/>
  <path d="M12 72 Q12 92 60 97 Q108 92 108 72" fill="url(#ravioliBowl)"/>
  <ellipse cx="60" cy="72" rx="48" ry="20" fill="#FFFFFF"/>
  <!-- Tomato sauce -->
  <ellipse cx="60" cy="68" rx="40" ry="16" fill="url(#tomatoSauce)"/>
  <!-- Ravioli squares -->
  <rect x="32" y="55" width="18" height="16" rx="3" fill="#FFE082" stroke="#FFD54F" stroke-width="1"/>
  <path d="M34 55 L34 71 M38 55 L38 71 M42 55 L42 71 M46 55 L46 71" stroke="#FFCA28" stroke-width="0.5" opacity="0.5"/>
  <ellipse cx="41" cy="63" rx="5" ry="4" fill="#FFF8E1" opacity="0.5"/>

  <rect x="55" y="50" width="20" height="18" rx="3" fill="#FFCA28" stroke="#FFB300" stroke-width="1"/>
  <path d="M57 50 L57 68 M62 50 L62 68 M67 50 L67 68 M72 50 L72 68" stroke="#FFE082" stroke-width="0.5" opacity="0.5"/>
  <ellipse cx="65" cy="59" rx="6" ry="5" fill="#FFF8E1" opacity="0.5"/>

  <rect x="78" y="55" width="16" height="14" rx="3" fill="#FFE082" stroke="#FFD54F" stroke-width="1"/>
  <path d="M80 55 L80 69 M84 55 L84 69 M88 55 L88 69 M92 55 L92 69" stroke="#FFCA28" stroke-width="0.5" opacity="0.5"/>
  <ellipse cx="86" cy="62" rx="4" ry="3" fill="#FFF8E1" opacity="0.5"/>

  <rect x="38" y="68" width="18" height="15" rx="3" fill="#FFCA28" stroke="#FFB300" stroke-width="1"/>
  <path d="M40 68 L40 83 M45 68 L45 83 M50 68 L50 83 M54 68 L54 83" stroke="#FFE082" stroke-width="0.5" opacity="0.5"/>
  <ellipse cx="47" cy="75" rx="5" ry="4" fill="#FFF8E1" opacity="0.5"/>

  <rect x="60" y="66" width="18" height="16" rx="3" fill="#FFE082" stroke="#FFD54F" stroke-width="1"/>
  <path d="M62 66 L62 82 M67 66 L67 82 M72 66 L72 82 M76 66 L76 82" stroke="#FFCA28" stroke-width="0.5" opacity="0.5"/>
  <ellipse cx="69" cy="74" rx="5" ry="4" fill="#FFF8E1" opacity="0.5"/>
  <!-- Basil -->
  <ellipse cx="50" cy="52" rx="4" ry="6" fill="#2E7D32" transform="rotate(-15 50 52)"/>
  <ellipse cx="72" cy="48" rx="3" ry="5" fill="#388E3C" transform="rotate(20 72 48)"/>
  <ellipse cx="86" cy="54" rx="3" ry="5" fill="#2E7D32" transform="rotate(-25 86 54)"/>
  <!-- Parmesan -->
  <circle cx="45" cy="60" r="1.5" fill="#FFF8E1"/>
  <circle cx="62" cy="55" r="1" fill="#FFF8E1"/>
  <circle cx="82" cy="62" r="1" fill="#FFF8E1"/>
  <!-- Steam -->
  <path d="M50 38 Q48 33 52 28" stroke="#FFFFFF" stroke-width="2" stroke-linecap="round" fill="none" opacity="0.6"/>
  <path d="M68 36 Q66 31 70 26" stroke="#FFFFFF" stroke-width="2" stroke-linecap="round" fill="none" opacity="0.5"/>
</svg>
