<svg xmlns="http://www.w3.org/2000/svg" viewBox="0 0 200 200">
  <path d="M 65 70 L 70 145 Q 100 152 130 145 L 135 70 Z" fill="url(#chocolateGradient)" stroke="#4E342E" stroke-width="2.5"/>
  <defs>
    <linearGradient id="chocolateGradient" x1="0%" y1="0%" x2="0%" y2="100%">
      <stop offset="0%" style="stop-color:#A1887F;stop-opacity:0.95" />
      <stop offset="100%" style="stop-color:#6D4C41;stop-opacity:1" />
    </linearGradient>
  </defs>
  <ellipse cx="100" cy="70" rx="35" ry="10" fill="#A1887F" stroke="#4E342E" stroke-width="2.5"/>
  <ellipse cx="100" cy="65" rx="32" ry="12" fill="#FFF"/>
  <ellipse cx="90" cy="60" rx="15" ry="10" fill="#FFFAF0"/>
  <ellipse cx="110" cy="62" rx="18" ry="11" fill="#FFFAF0"/>
  <path d="M 85 62 Q 95 64 105 62 Q 115 60 120 58" stroke="#4E342E" stroke-width="2" fill="none" stroke-linecap="round"/>
  <path d="M 80 58 Q 90 60 100 58" stroke="#4E342E" stroke-width="2" fill="none" stroke-linecap="round"/>
  <rect x="95" y="52" width="4" height="5" fill="#3E2723" transform="rotate(15 97 54.5)"/>
  <rect x="105" y="50" width="4" height="5" fill="#3E2723" transform="rotate(-20 107 52.5)"/>
  <circle cx="82" cy="95" r="4" fill="#D7CCC8" opacity="0.5"/>
  <rect x="110" y="35" width="7" height="90" fill="#8D6E63" opacity="0.9" rx="3.5"/>
  <path d="M 72 80 Q 74 110 75 140" stroke="#FFF" stroke-width="4" opacity="0.3" fill="none"/>
</svg>
