<svg xmlns="http://www.w3.org/2000/svg" viewBox="0 0 200 200">
  <ellipse cx="100" cy="140" rx="45" ry="10" fill="#8D6E63" opacity="0.2"/>
  <path d="M 60 80 Q 58 100 60 120 L 70 135 Q 100 140 130 135 L 140 120 Q 142 100 140 80 Z" fill="#FFF" stroke="#8D6E63" stroke-width="2"/>
  <ellipse cx="100" cy="80" rx="40" ry="12" fill="#EFEBE9" stroke="#8D6E63" stroke-width="2"/>
  <path d="M 60 85 Q 58 100 60 118 L 70 130 Q 100 135 130 130 L 140 118 Q 142 100 140 85 Z" fill="url(#blackTeaGradient)"/>
  <defs>
    <linearGradient id="blackTeaGradient" x1="0%" y1="0%" x2="0%" y2="100%">
      <stop offset="0%" style="stop-color:#6D4C41;stop-opacity:0.9" />
      <stop offset="100%" style="stop-color:#4E342E;stop-opacity:1" />
    </linearGradient>
  </defs>
  <ellipse cx="100" cy="85" rx="38" ry="10" fill="#5D4037" opacity="0.3"/>
  <path d="M 145 95 Q 165 85 170 75 Q 172 70 168 68 Q 160 65 150 75 L 145 85" fill="#8D6E63" stroke="#6D4C41" stroke-width="1.5"/>
  <circle cx="90" cy="100" r="2" fill="#FFF" opacity="0.4"/>
</svg>
