<svg xmlns="http://www.w3.org/2000/svg" viewBox="0 0 120 120" fill="none">
  <!-- Warm Ghibli-style Süßkartoffel Pommes -->
  <defs>
    <linearGradient id="sweetPotatoFry" x1="0%" y1="0%" x2="0%" y2="100%">
      <stop offset="0%" style="stop-color:#FF8A65"/>
      <stop offset="100%" style="stop-color:#E64A19"/>
    </linearGradient>
  </defs>
  <!-- Shadow -->
  <ellipse cx="60" cy="100" rx="40" ry="8" fill="#00000015"/>
  <!-- Paper cone/holder -->
  <path d="M30 40 L15 95 L105 95 L90 40 Z" fill="#E8B86D"/>
  <path d="M32 42 L18 93 L102 93 L88 42 Z" fill="#FFF8E1"/>
  <!-- Sweet potato fries -->
  <rect x="35" y="30" width="8" height="55" rx="2" fill="url(#sweetPotatoFry)" transform="rotate(-8 39 58)"/>
  <rect x="45" y="25" width="7" height="60" rx="2" fill="url(#sweetPotatoFry)" transform="rotate(3 48 55)"/>
  <rect x="55" y="28" width="8" height="58" rx="2" fill="url(#sweetPotatoFry)" transform="rotate(-5 59 57)"/>
  <rect x="65" y="22" width="7" height="62" rx="2" fill="url(#sweetPotatoFry)" transform="rotate(6 68 53)"/>
  <rect x="75" y="30" width="8" height="55" rx="2" fill="url(#sweetPotatoFry)" transform="rotate(-10 79 58)"/>
  <rect x="40" y="35" width="6" height="48" rx="2" fill="#FF7043" transform="rotate(12 43 59)"/>
  <rect x="58" y="32" width="6" height="52" rx="2" fill="#FF7043" transform="rotate(-3 61 58)"/>
  <rect x="70" y="35" width="6" height="48" rx="2" fill="#FF7043" transform="rotate(8 73 59)"/>
  <rect x="82" y="38" width="6" height="45" rx="2" fill="#FF7043" transform="rotate(-12 85 60)"/>
  <!-- Crispy spots -->
  <circle cx="42" cy="40" r="2" fill="#BF360C" opacity="0.3"/>
  <circle cx="58" cy="35" r="2" fill="#BF360C" opacity="0.3"/>
  <circle cx="72" cy="38" r="2" fill="#BF360C" opacity="0.3"/>
  <!-- Dipping sauce -->
  <ellipse cx="100" cy="85" rx="12" ry="8" fill="#E0E0E0"/>
  <ellipse cx="100" cy="83" rx="10" ry="6" fill="#FAFAFA"/>
  <ellipse cx="100" cy="82" rx="6" ry="4" fill="#FFF8E1" opacity="0.7"/>
</svg>
