<svg xmlns="http://www.w3.org/2000/svg" viewBox="0 0 120 120" fill="none">
  <!-- Warm Ghibli-style Teriyaki Bowl -->
  <defs>
    <linearGradient id="teriyakiBowl" x1="0%" y1="0%" x2="100%" y2="100%">
      <stop offset="0%" style="stop-color:#5D4037"/>
      <stop offset="100%" style="stop-color:#3E2723"/>
    </linearGradient>
    <linearGradient id="teriyakiGlaze" x1="0%" y1="0%" x2="100%" y2="100%">
      <stop offset="0%" style="stop-color:#8B4513"/>
      <stop offset="100%" style="stop-color:#5D3A1A"/>
    </linearGradient>
  </defs>
  <!-- Shadow -->
  <ellipse cx="60" cy="105" rx="42" ry="8" fill="#00000015"/>
  <!-- Bowl -->
  <ellipse cx="60" cy="85" rx="48" ry="18" fill="url(#teriyakiBowl)"/>
  <path d="M12 72 Q12 92 60 95 Q108 92 108 72" fill="url(#teriyakiBowl)"/>
  <ellipse cx="60" cy="72" rx="48" ry="18" fill="#FFFFFF"/>
  <!-- Rice base -->
  <ellipse cx="60" cy="70" rx="42" ry="15" fill="#FFFDE7"/>
  <!-- Rice grains -->
  <ellipse cx="35" cy="68" rx="3" ry="1.5" fill="#FFF9C4" transform="rotate(-10 35 68)"/>
  <ellipse cx="50" cy="72" rx="3" ry="1.5" fill="#FFFDE7" transform="rotate(15 50 72)"/>
  <ellipse cx="70" cy="70" rx="3" ry="1.5" fill="#FFF9C4" transform="rotate(-5 70 70)"/>
  <ellipse cx="85" cy="72" rx="3" ry="1.5" fill="#FFFDE7" transform="rotate(20 85 72)"/>
  <!-- Teriyaki chicken pieces -->
  <ellipse cx="45" cy="58" rx="14" ry="8" fill="url(#teriyakiGlaze)"/>
  <ellipse cx="45" cy="56" rx="12" ry="6" fill="#A1887F"/>
  <path d="M36 55 L40 55 M44 53 L48 53 M50 55 L54 55" stroke="#6D4C41" stroke-width="2" opacity="0.5"/>
  <ellipse cx="72" cy="60" rx="12" ry="7" fill="url(#teriyakiGlaze)"/>
  <ellipse cx="72" cy="58" rx="10" ry="5" fill="#A1887F"/>
  <path d="M65 57 L68 57 M72 55 L76 55 M78 57 L82 57" stroke="#6D4C41" stroke-width="2" opacity="0.5"/>
  <!-- Teriyaki sauce glaze -->
  <path d="M35 52 Q45 48 55 52" stroke="#8B4513" stroke-width="2" fill="none"/>
  <path d="M65 54 Q72 50 80 54" stroke="#8B4513" stroke-width="2" fill="none"/>
  <!-- Broccoli -->
  <circle cx="28" cy="62" r="6" fill="#2E7D32"/>
  <circle cx="26" cy="60" r="3" fill="#388E3C"/>
  <circle cx="30" cy="59" r="3" fill="#388E3C"/>
  <circle cx="28" cy="64" r="2" fill="#388E3C"/>
  <rect x="27" y="65" width="2" height="4" fill="#795548"/>
  <circle cx="88" cy="64" r="5" fill="#2E7D32"/>
  <circle cx="86" cy="62" r="2.5" fill="#388E3C"/>
  <circle cx="90" cy="62" r="2.5" fill="#388E3C"/>
  <rect x="87" y="66" width="2" height="3" fill="#795548"/>
  <!-- Sesame seeds -->
  <ellipse cx="42" cy="55" rx="1.5" ry="1" fill="#FFF8DC"/>
  <ellipse cx="48" cy="53" rx="1.5" ry="1" fill="#FFF8DC"/>
  <ellipse cx="70" cy="56" rx="1.5" ry="1" fill="#FFF8DC"/>
  <ellipse cx="76" cy="58" rx="1.5" ry="1" fill="#FFF8DC"/>
  <!-- Green onion -->
  <circle cx="55" cy="62" r="2" fill="#66BB6A"/>
  <circle cx="62" cy="65" r="1.5" fill="#4CAF50"/>
  <!-- Steam -->
  <path d="M45 40 Q43 35 47 30" stroke="#FFFFFF" stroke-width="2" stroke-linecap="round" fill="none" opacity="0.6"/>
  <path d="M70 38 Q68 33 72 28" stroke="#FFFFFF" stroke-width="2" stroke-linecap="round" fill="none" opacity="0.5"/>
</svg>
