<svg xmlns="http://www.w3.org/2000/svg" viewBox="0 0 200 200">
  <path d="M 65 70 L 70 145 Q 100 152 130 145 L 135 70 Z" fill="url(#vanillaGradient)" stroke="#D4AF37" stroke-width="2.5"/>
  <defs>
    <linearGradient id="vanillaGradient" x1="0%" y1="0%" x2="0%" y2="100%">
      <stop offset="0%" style="stop-color:#FFFBF0;stop-opacity:0.98" />
      <stop offset="100%" style="stop-color:#FFF8DC;stop-opacity:1" />
    </linearGradient>
  </defs>
  <ellipse cx="100" cy="70" rx="35" ry="10" fill="#FFFBF0" stroke="#D4AF37" stroke-width="2.5"/>
  <ellipse cx="100" cy="65" rx="32" ry="12" fill="#FFFEF7"/>
  <ellipse cx="92" cy="60" rx="14" ry="10" fill="#FFF"/>
  <ellipse cx="108" cy="62" rx="16" ry="11" fill="#FFF"/>
  <g transform="translate(100, 50)">
    <rect x="-1.5" y="-10" width="3" height="15" fill="#3E2723" rx="1.5"/>
    <line x1="0" y1="-8" x2="0" y2="3" stroke="#1B0F0A" stroke-width="0.5"/>
  </g>
  <circle cx="85" cy="95" r="0.8" fill="#3E2723" opacity="0.6"/>
  <circle cx="95" cy="110" r="0.7" fill="#3E2723" opacity="0.6"/>
  <circle cx="110" cy="100" r="0.8" fill="#3E2723" opacity="0.6"/>
  <circle cx="80" cy="90" r="4" fill="#FFF" opacity="0.5"/>
  <rect x="88" y="35" width="7" height="90" fill="#FFE4B5" opacity="0.95" rx="3.5"/>
  <path d="M 72 80 Q 74 110 75 140" stroke="#FFF" stroke-width="4" opacity="0.5" fill="none"/>
</svg>
